<?xml version="1.0" encoding="UTF-8"?>
<svg width="249px" height="40px" viewBox="0 0 249 40" version="1.1" xmlns="http://www.w3.org/2000/svg" xmlns:xlink="http://www.w3.org/1999/xlink">
    <title>jaa</title>
    <g id="jaa" stroke="none" stroke-width="1" fill="none" fill-rule="evenodd">
        <path d="M133.112821,7.09965882 C134.838169,7.83068345 135.471383,9.25286707 134.754729,11.0866866 C132.484705,16.895018 130.201238,22.6977868 127.919162,28.5014827 C126.735709,31.5104116 125.593048,34.5369555 124.340525,37.5176076 C123.392557,39.7741884 121.839652,40.4894522 120.041989,39.6749879 C118.362533,38.9138322 117.912422,37.3252327 118.946148,35.2072546 C119.500095,34.072938 119.503339,33.124043 119.013363,31.9429074 C116.328458,25.4721574 113.739509,18.9615417 111.120429,12.463442 C110.947524,12.0351181 110.809384,11.5933511 110.637869,11.1645637 C109.924923,9.37941731 110.26749,7.94379062 112.126341,7.17058258 C113.9444,6.41452603 115.335062,7.0746269 116.078603,8.83474138 C118.114995,13.6538486 120.374357,18.3858076 121.895742,23.4111964 C122.072819,23.9975922 122.277246,24.575644 122.653189,25.7164503 C124.703952,20.4254452 126.553068,15.6457401 128.41192,10.8702069 C128.691443,10.1526253 128.987654,9.43875222 129.326975,8.74852033 C130.117799,7.13859735 131.418067,6.38115014 133.112821,7.09965882 Z M40.3738864,1.43883028 C42.3370376,2.26998257 43.5144647,3.91420855 43.9604036,5.99463883 C44.2913811,7.53827359 43.7518043,8.77364496 42.2220762,9.3595772 C40.6561908,9.95941605 39.3851258,9.58440088 38.4779506,8.0630167 C37.1818537,5.88802141 31.2784937,5.1648772 29.5767871,6.92035614 C28.8239754,7.69680906 29.1966728,8.32631537 29.8136631,8.894169 C33.860953,12.6202159 38.4881488,15.5725912 42.9619083,18.7298574 C43.6966414,19.2481108 44.1416532,18.9301127 44.3103869,18.2120676 C44.5569976,17.1639721 44.7030171,16.0908446 44.8671152,15.025134 C45.1243877,13.3544854 46.247579,12.5984289 47.7731351,12.6123355 C49.4461014,12.6276328 50.5558497,13.5769913 50.6443885,15.3250534 C50.7593499,17.597395 50.322682,19.8011307 49.2013449,21.7907044 C48.6015061,22.8540972 48.6589868,23.5809498 49.6509923,24.324954 C50.387116,24.8775103 51.0588057,25.5362206 51.6744054,26.2241347 C52.8411708,27.5276485 52.7818359,28.922946 51.6192425,30.1634164 C50.536844,31.3176658 48.8369915,31.744599 47.9251808,30.5347232 C45.4270884,27.2217028 43.1556739,28.2911219 40.253826,29.9775313 C36.4930125,32.1627247 32.2691086,32.2387476 28.1365248,30.8911962 C24.5235851,29.7128419 21.9249015,27.4265937 21.3667825,23.4525454 C20.8086635,19.4780335 22.4848747,16.5659874 26.4366724,14.3321208 C25.566118,13.6214925 24.7956913,13.1815798 24.2779015,12.539094 C21.367246,8.92661777 22.3536889,3.72183365 26.4871998,1.69934762 C31.0156586,-0.515976865 35.7313933,-0.525711499 40.3738864,1.43883028 Z M171.783514,5.03248618 C171.78954,6.71472359 172.540034,6.98868399 173.894539,6.86445152 C174.353921,6.82226811 174.820256,6.85100846 175.283347,6.86027954 C177.579329,6.90617138 178.852249,7.98949704 178.831389,9.87338043 C178.810065,11.7433572 177.542245,12.7965518 175.181828,12.8262193 C171.655109,12.871184 171.844703,12.2625377 171.840068,16.1818866 C171.837286,18.6517022 171.885496,21.1229085 171.825234,23.5913335 C171.792321,24.9495466 172.233625,25.6541487 173.685939,25.4775346 C174.143931,25.4219081 174.61073,25.4260801 175.073357,25.4205175 C177.359141,25.395022 178.843905,26.464441 178.801721,28.2774007 C178.752121,30.4102126 177.188553,31.1384559 175.400162,31.384603 C168.88213,32.2829706 165.941807,29.726934 165.882008,23.1824788 C165.871346,22.0249845 165.880618,20.8670267 165.879227,19.7090688 C165.877836,18.3197976 165.837971,16.9286721 165.888961,15.541255 C165.941343,14.1176807 165.919092,12.9778015 164.285528,12.1545296 C162.744211,11.3776131 162.774342,9.55584595 164.220167,8.57311151 C165.561692,7.66083727 166.006241,6.53208332 165.877373,5.03943949 C165.701686,3.00490106 166.530984,1.71853876 168.636446,1.56232106 C170.479073,1.42510908 171.77517,2.72398735 171.783514,5.03248618 Z M205.215305,18.9162988 C205.404435,23.9866523 205.731241,22.9265043 201.333504,23.0372937 C199.789406,23.0762323 198.243453,23.0433199 196.698428,23.044247 C194.457608,23.0451742 192.217252,23.0340489 189.976895,23.0553723 C189.556915,23.0595443 188.952904,22.871805 188.815693,23.4804513 C188.696096,24.0116842 189.204614,24.2569043 189.583801,24.5072234 C190.575807,25.1622252 191.658669,25.5233337 192.859737,25.4788326 C193.72612,25.4468473 194.57396,25.5664443 195.305448,26.0434413 C196.420296,26.7707575 197.12907,27.8063371 196.818025,29.1645503 C196.498173,30.561702 195.612785,31.3636504 194.036237,31.4665594 C187.151534,31.9166703 181.581469,27.0748489 181.270888,20.2879551 C180.889847,11.9541816 185.49711,6.68774475 192.911656,6.31458379 C200.993719,5.90804695 204.960814,12.0835131 205.215305,18.9162988 Z M18.0348491,3.53511411 C18.1224608,6.54497012 18.0566362,9.55946167 18.0566362,12.5716355 L18.0659073,12.5716355 C18.0659073,15.0433053 18.0839859,17.5149751 18.0621988,19.986645 C18.012135,25.7490845 14.3449594,30.1157631 8.64417254,31.1833279 C6.6550624,31.5555617 4.63535769,31.4433817 2.63744003,31.2945808 C0.936196908,31.1675671 -0.0627619259,30.175098 0.00306273971,28.3969049 C0.0661060814,26.6928804 1.00109447,25.6410765 2.70465535,25.4820774 C4.00724205,25.3606263 5.33022512,25.4737335 6.64069223,25.4148621 C10.0399336,25.2618893 12.0999675,23.219934 12.1351976,19.8406255 C12.1894334,14.6659724 12.1602295,9.49039213 12.1477135,4.31527546 C12.1440051,2.72806662 12.5292185,1.37819742 14.1943044,0.808026022 C16.1375227,0.142362502 17.9718058,1.39164049 18.0348491,3.53511411 Z M103.676262,7.27951776 C105.399292,7.9702132 106.064956,9.30478511 105.477169,10.9990749 C104.881039,12.7156153 103.415745,13.3298244 101.726554,12.7893204 C99.5548037,12.0949165 97.3649746,11.7282453 95.1209098,12.030019 C94.1228781,12.1639861 92.6724177,12.1663039 92.6121557,13.5741173 C92.5560656,14.8961733 93.9712959,14.8906106 94.8673458,15.1307316 C97.0228718,15.7073927 99.2307794,16.0856528 101.393259,16.6386727 C104.98163,17.5565096 106.762141,19.4779408 106.982793,22.5318345 C107.228476,25.923659 105.407173,28.9404683 102.213286,30.2439821 C100.200071,31.0653998 98.0885824,31.51412 95.8890188,31.3829342 C93.3612589,31.5456417 90.9934251,30.8308414 88.682145,29.9533337 C87.0040796,29.3164106 86.1896152,27.9781302 86.8937537,26.263444 C87.5265049,24.7225906 88.7530687,23.8089257 90.6035762,24.4147908 C93.3515243,25.3140855 96.1212593,25.8907466 98.9897314,24.9525134 C99.8125397,24.6831885 100.791102,24.3948579 100.8013,23.425103 C100.812426,22.3793252 99.7745283,22.2439675 98.9461573,22.0571552 C96.3938291,21.4818847 93.8224951,20.9803193 91.2956623,20.3100202 C88.6464513,19.6068088 86.6485337,18.0335066 86.282326,15.1710608 C85.8975762,12.158887 87.0773211,9.73218189 89.7195788,8.1162327 C94.2202244,5.36364915 98.8937757,5.36272204 103.676262,7.27951776 Z M156.192849,7.17688691 C157.854227,7.85228506 158.931526,8.985211 158.206064,10.9696856 C157.506098,12.8832364 156.007891,13.3083154 154.264928,12.7372169 C151.78306,11.9232161 149.300729,11.6636259 146.753963,12.2296253 C146.014594,12.394187 145.117154,12.5735824 145.111591,13.5683692 C145.106029,14.579844 145.987708,14.6887792 146.74701,14.8691017 C149.22007,15.4564246 151.714918,15.9695789 154.156457,16.6676912 C157.925614,17.7454542 159.612487,19.6798649 159.768705,22.8357405 C159.931412,26.1139942 157.765224,29.2833128 154.431808,30.4514689 C152.535872,31.1157417 150.558814,31.4810223 148.526593,31.3920199 C146.164322,31.513471 143.936945,30.8621777 141.749898,30.1079754 C139.993955,29.5025739 138.98109,28.2004507 139.638873,26.3411357 C140.253545,24.6037354 141.641426,23.8986697 143.542925,24.4771851 C146.142999,25.2680082 148.75698,25.8891706 151.487776,25.0176891 C152.408858,24.7233323 153.430531,24.4410279 153.413379,23.3470405 C153.397155,22.2915281 152.284162,22.1988173 151.491021,22.0184948 C149.389731,21.5396435 147.26619,21.1609199 145.159801,20.7052464 C141.78281,19.9746853 139.388554,17.8914737 139.05804,15.4392731 C138.579652,11.8907674 140.134412,9.02600375 143.615702,7.41051812 C147.747359,5.4937224 151.981925,5.4645185 156.192849,7.17688691 Z M211.083064,6.42555861 C220.504336,6.48535708 229.926997,6.38244809 239.346878,6.4941646 C244.605434,6.55628084 248.16831,10.1947161 248.311548,15.457908 C248.421411,19.4708948 248.364857,23.4889807 248.327309,27.5042853 C248.306449,29.7539128 247.087302,31.2289416 245.369371,31.2525829 C243.392777,31.279469 242.388719,30.0264826 242.378984,27.4653468 C242.365078,23.8357191 242.415605,20.2056279 242.360442,16.5764637 C242.312696,13.4465472 241.259965,12.3956704 238.123095,12.4531511 C236.070015,12.4906989 233.442591,11.5348506 232.120071,12.8967722 C230.910659,14.1428053 231.79512,16.7234104 231.758963,18.7139112 C231.704263,21.7246943 231.766843,24.7373316 231.736249,27.7490418 C231.714925,29.8665564 230.594979,31.1770236 228.845526,31.2428482 C227.131303,31.3068187 225.797658,29.7877523 225.781898,27.64706 C225.753621,23.7861188 225.796268,19.9247142 225.762428,16.063773 C225.739251,13.4553548 224.909025,12.5741386 222.323321,12.448052 C220.628568,12.3650758 218.922226,12.5022878 217.228863,12.4049414 C215.802507,12.3228924 215.356105,12.8666412 215.376965,14.2679649 C215.44418,18.7458964 215.459478,23.2266092 215.377892,27.7040771 C215.325047,30.5943362 212.935426,32.0814174 210.691361,30.7445277 C209.380431,29.9634392 209.212624,28.6288673 209.194082,27.3063478 C209.149117,24.1412012 209.179248,20.9742004 209.178321,17.8081267 C209.177394,14.7190029 209.213551,11.6294156 209.160706,8.54168255 C209.137065,7.15287481 209.460625,6.41536043 211.083064,6.42555861 Z M68.9336791,0.336823398 C71.9500249,0.324770995 73.3824067,1.22174795 74.3855375,4.00678028 C77.0732235,11.470463 79.6992568,18.9568598 82.358666,26.4307407 C82.9863181,28.1941 83.0609503,29.868457 81.1372013,30.8136436 C79.5759515,31.5808254 78.1185377,31.3263343 77.2197066,29.606549 C77.1130892,29.4025853 77.0199148,29.1907411 76.9258133,28.9802876 C76.2077682,27.3777815 76.3185576,24.9876971 74.8639252,24.2599174 C73.3703543,23.5126683 71.2472771,24.0235048 69.3995509,23.985957 C69.0912875,23.9794672 68.7756072,24.0262862 68.4747607,23.9790037 C64.4566748,23.3416169 61.6007187,24.201046 60.8335368,28.9089003 C60.4932882,30.9948932 58.6437078,31.675854 56.9489544,30.9494649 C55.107718,30.160496 54.7452188,28.6979832 55.3705531,26.9350874 C58.125918,19.1682404 60.886382,11.4027841 63.6853209,3.65169793 C64.5577295,1.23519102 66.4161174,0.227424658 68.9336791,0.336823398 Z M30.769975,18.1953797 C29.2884565,19.417308 26.9567799,20.0764817 27.3109352,22.6200024 C27.648866,25.0439262 29.734859,25.3266941 31.6409929,25.7017093 C32.0911039,25.7902481 32.5602205,25.7832948 32.7308084,25.7967379 C34.9275907,25.8569999 36.6394955,25.2103421 38.313389,24.3815076 C39.335062,23.8753066 39.6113401,23.4460556 38.4788778,22.6886084 C36.4318234,21.3183429 34.4436403,19.8590749 32.4322796,18.4355006 L32.2381618,18.2994312 C31.7829853,17.9882145 31.3098416,17.7500202 30.769975,18.1953797 Z M68.8326244,6.22488609 C67.50686,10.2021793 66.2288416,14.0366978 64.8622845,18.1363692 C67.2787914,18.1363692 69.4899439,18.1335879 71.7006328,18.1382235 C72.4223864,18.1396141 72.9814325,17.9282335 72.6856851,17.0794662 C71.4308444,13.4753339 70.1356746,9.88464479 68.8326244,6.22488609 Z M193.810023,12.1998652 C191.64059,12.2165531 189.464205,12.6467312 188.194994,14.7860328 C187.208551,16.4483374 187.564097,17.028707 189.568968,17.0616193 C190.726926,17.0801615 191.885811,17.0648642 193.044232,17.0644007 C194.43443,17.0644007 195.828337,16.9981124 197.213436,17.0810886 C198.948983,17.1849247 198.933222,16.466416 198.375103,15.1508498 C197.50084,13.0903524 195.834827,12.1841043 193.810023,12.1998652 Z" id="j-a" fill="#346275"></path>
    </g>
</svg>