<?xml version="1.0" encoding="UTF-8"?>
<svg id="Layer_2" data-name="Layer 2" xmlns="http://www.w3.org/2000/svg" viewBox="0 0 162.1 27.9">
  <defs>
    <style>
      .cls-1 {
        fill: #346275;
      }
    </style>
  </defs>
  <g id="Layer_1-2" data-name="Layer 1">
    <g>
      <path class="cls-1" d="M162.1,4.4c0-.2-.1-.3-.3-.3-1.9,0-3.9,0-5.8,0-.4,0-.4,.2-.4,.4-.4,2.5-.9,5.1-1.3,7.6,0,.4-.2,.4-.8,.4-1.8,0-3.6,0-5.4,0s-1.3,.1-1.2-.4c.5-2.5,.9-5,1.4-7.5,0-.4,0-.5-.4-.5-1.8,0-3.7,0-5.5,0-.3,0-.5,0-.5,.4-.9,5.3-1.8,10.6-2.8,15.9-.3,1.9-.7,3.8-1,5.7q-.1,.7,.6,.7c1.8,0,3.5,0,5.3,0s.5-.2,.5-.4c.2-1.1,.4-2.2,.6-3.3,.3-1.4,.5-2.8,.8-4.2,.2-.8,.4-1,1.2-1,1.9,0,3.8,0,5.8,0,.9,0,.6,0,.3,2.1s-.4,1.9-.6,2.8c-.7,3.6-1.1,4.1-.3,4.1,1.9,0,3.7,0,5.6,0,.4,0,.5-.2,.5-.5,.2-1.5,.5-2.9,.7-4.4,.9-5.1,1.8-10.2,2.7-15.3l.4-2.2Z"/>
      <path class="cls-1" d="M89.9,12.3c-1,0-2,0-3,0-.2,0-.4,0-.5-.2-1.1-2.4-3.6-2.8-5.7-1.8-2.1,1-3,2.8-3.5,5-.2,.8-.2,1.7,0,2.6,.3,1.9,1.3,2.8,3.1,3.1,1.5,.2,2.8,0,3.9-1.3,.8-.9,1.9-1.3,3.1-1.3,1.6,0,3.1,0,4.7,0,.2,0,.4,0,.2,.3-1,2.4-2.5,4.5-4.7,6-1.9,1.3-4,2-6.2,2.2-1.8,.2-3.6,.2-5.3-.5-2.9-1.1-4.8-3.1-5.3-6.3-.4-2.8-.3-5.5,.9-8.1,1.6-3.5,4.1-6,7.7-7.4,2.9-1.1,5.9-1.1,8.8,0,3,1.1,4.7,3.3,5.2,6.4,0,.4,.2,1,0,1.2,0,.2-.8,0-1.2,.1-.7,0-1.4,0-2.1,0Z"/>
      <path class="cls-1" d="M135.6,22.4c-.1,.2-.1,.3-.2,.4-.6,1.3-1.5,2.3-2.8,2.9-2.4,1.3-5,1.5-7.7,1.1-1.6-.3-3.1-.7-4.4-1.7-1.7-1.3-2.2-3.1-2.1-5.1,0-.4,.4-.6,.8-.6,1.8,0,3.5,0,5.3,0,.2,0,.3,0,.4,.2,.2,.4,.4,.7,.6,1.1,.6,1.1,1.8,1.4,2.9,.8,.7-.4,1-1.2,.6-2-.3-.5-.7-.8-1.2-1.1-1.4-.7-2.8-1.4-4.3-2-3.1-1.3-4.5-4.8-3.2-8.1,1-2.6,3.1-4,5.7-4.5,2.4-.5,4.9-.4,7.2,.4,2.6,.9,4.2,3.5,3.9,6.1,0,.3-.1,.4-.4,.4-2,0-3.9,0-5.9,0-.5,0-.6-.3-.6-.7-.1-.8-.6-1.3-1.5-1.4-.9-.1-1.6,.3-1.9,1-.3,.7,0,1.4,.6,1.8,1.6,.9,3.1,1.7,4.7,2.6,1.8,1,3.2,2.2,3.7,4.2,0,0,0,.2,0,.3,0,0,.3,1.4-.5,3.7Z"/>
      <g>
        <path class="cls-1" d="M115.8,26.2c-.5-2.7-1-5.5-1.5-8.2-.8-4.5-1.7-9-2.5-13.6,0-.3-.2-.5-.5-.5-1.9,0-3.9,0-5.8,0-.7,0-1.3,.3-1.6,.9-.3,.6-.7,1.2-1,1.8-1.3,2.4-2.6,4.9-3.9,7.3,0,.2,0,.3-.2,.3-.1,0,0,.1,0,.2-.8,1.2-1.4,2.5-2,3.7-1.4,2.7-2.9,5.3-4.3,8.1,0,.2-.2,.3-.2,.5,1.8,0,3.7,0,5.5,0,1,0,1.3-.2,1.7-1.1,.3-.7,.7-1.4,1.1-2.1,.3-.4,.6-.6,1.1-.6,2.1,0,4.1,0,6.2,0,.6,0,.9,.2,1,.8,.1,.8,.3,1.7,.4,2.5,0,.3,.2,.4,.5,.4,1.9,0,3.9,0,5.8,0,.4,0,.5,0,.5-.5Zm-8.5-8.2c-.6,0-1.2,0-1.8,0s-1.3,0-1.9,0c-.2,0-.4,0-.2-.3,1-2,2-3.9,3-5.9,0-.1,.1-.3,.3-.3,.2,0,.2,.2,.2,.4,.3,1.9,.6,3.7,.9,5.6,0,.4,0,.5-.4,.5Z"/>
        <path class="cls-1" d="M98.6,14.4c.1,0,.2-.2,.2-.3-.1,0-.2,.2-.2,.3Z"/>
      </g>
      <g>
        <path class="cls-1" d="M14.1,.9c0-.5,.4-.9,.9-.9H62.4s2.9-.2,2.1,2.8l-.6,2.8c0,.4-.5,.8-.9,.8h-5.6c-.6,0-1-.5-.9-1.1l.2-1.3c0-.6-.4-1.1-.9-1.1h-16.1c-.5,0-.9,.3-.9,.8l-.4,2c0,.5-.5,.8-.9,.8H11.6c-.5,0-.9-.4-.9-.9v-.3c0-.5,.4-.9,.9-.9h9c.5,0,.9-.4,.9-.9h0c0-.5-.4-.9-.9-.9h-5.5c-.5,0-1-.4-.9-1v-.4Z"/>
        <path class="cls-1" d="M.9,8.4H42.8c.5,0,.9,.5,.8,1l-2.5,14.7c0,.5,.3,1,.8,1h4.3c.4,0,.7-.3,.8-.7l2.8-15.1c0-.4,.4-.7,.8-.7h11.4c.5,0,.9,.5,.8,1l-3.4,17.7c0,.4-.4,.7-.8,.7H7.2c-.5,0-.8-.4-.8-.8v-.5c0-.5,.4-.8,.8-.8H28.3c.5,0,.8-.4,.8-.8v-.7c0-.5-.4-.8-.8-.8H14c-.5,0-.8-.4-.8-.8v-.4c0-.5,.4-.8,.8-.8h7.4c.5,0,.8-.4,.8-.8v-.2c0-.5-.4-.8-.8-.8H5.1c-.5,0-.8-.4-.8-.8v-.8c0-.5,.4-.8,.8-.8H28c.5,0,.8-.4,.8-.8v-.3c0-.5-.4-.8-.8-.8H11.1c-.5,0-.8-.4-.8-.8v-.8c0-.5,.4-.8,.8-.8h6.4c.5,0,.8-.4,.8-.8h0c0-.5-.4-.8-.8-.8H.8C.4,11.1,0,10.7,0,10.2v-1c0-.5,.4-.8,.9-.8Z"/>
      </g>
    </g>
  </g>
</svg>