<?xml version="1.0" encoding="UTF-8"?>
<svg width="100px" height="40px" viewBox="0 0 100 40" version="1.1" xmlns="http://www.w3.org/2000/svg" xmlns:xlink="http://www.w3.org/1999/xlink">
    <!-- Generator: Sketch 56.3 (81716) - https://sketch.com -->
    <title>meridianpay</title>
    <desc>Created with Sketch.</desc>
    <defs>
        <linearGradient x1="50%" y1="100%" x2="50%" y2="3.061617e-15%" id="linearGradient-1">
            <stop stop-color="#346275" offset="0%"></stop>
            <stop stop-color="#346275" offset="100%"></stop>
        </linearGradient>
    </defs>
    <g id="meridianpay" stroke="none" stroke-width="1" fill="none" fill-rule="evenodd">
        <path d="M57.5579175,21.1599071 L59.9030437,8.79262531 L63.4392442,8.79262531 L61.0936799,21.1599071 L57.5579175,21.1599071 Z M51.2271723,18.4140612 C53.0117026,17.752475 53.5898239,14.2355525 54.0956526,11.8133143 C53.6500677,11.5607285 53.2458867,11.3946748 52.2567933,11.4739775 C50.1381838,11.6452889 48.7234407,14.3150743 48.9013241,16.6216444 C48.9924565,17.8065848 49.8466038,18.9258048 51.2271723,18.4140612 Z M55.7345026,3.54282875 L59.270484,3.54282875 L55.9338547,21.1598633 L52.3978733,21.1598633 L52.7043498,19.5396342 C51.8263241,20.5556729 50.5116952,21.5638253 48.5963811,21.4266885 C47.7091544,21.3633778 46.9836002,20.9837324 46.4609033,20.4730842 C44.5368264,18.5952307 45.0595234,14.6502488 46.3465496,12.4654806 C47.7341282,10.1089629 51.0766724,7.7434634 54.6777171,9.15426326 L55.7345026,3.54282875 Z M39.5184755,21.1599071 L41.8557152,8.79262531 L45.3916966,8.79262531 L43.0544569,21.1599071 L39.5184755,21.1599071 Z M46.0004436,4.64848837 C46.7273122,6.12588498 45.5027204,7.59649048 43.9793195,7.54654291 C42.095113,7.48498472 41.7881983,4.98191032 43.1788439,4.07650103 C43.4658234,3.88919764 43.8520408,3.79784616 44.2459256,3.77133889 C45.0398291,3.71920064 45.7616592,4.16434742 46.0004436,4.64848837 Z M62.2852143,3.7713608 C63.1349802,3.71484118 63.8213212,4.20577324 64.0397323,4.64851027 C64.7909175,6.17475912 63.4221788,7.59213102 62.0183891,7.54656481 C60.8476881,7.50778973 59.7852069,6.34957562 60.5309154,4.83888063 C60.773643,4.3483867 61.2888917,3.83773849 62.2852143,3.7713608 Z M19.180525,11.6269091 C19.2929071,13.2701404 18.8256344,14.8969416 18.5323019,16.5077508 C18.2363406,18.1332376 17.9460751,19.7151298 17.6553715,21.1598852 L14.1853296,21.1598852 C14.1857678,21.1561611 14.1862059,21.1533132 14.1870822,21.1500271 L14.106246,21.1500271 L15.5619548,13.4624824 C15.7788325,12.2604546 15.1113313,11.2071742 13.8037127,11.7410437 C13.6120279,11.8188129 13.3399451,11.9936294 13.1940456,12.1224416 C12.5874455,12.6545585 12.0724159,13.3634635 11.8829218,14.2474041 L10.5737696,21.1598852 L7.03778821,21.1598852 L8.49503054,13.4642349 C8.50138352,13.3347655 8.53972048,13.1632351 8.53796793,13.0331085 C8.52701451,12.1793993 8.18614424,11.5149652 7.16901012,11.6269091 C6.79812749,11.6672176 6.33216922,11.9579213 6.1014903,12.1603404 C5.5652111,12.6311182 5.09399518,13.1448333 4.81490217,14.4068858 L3.53598143,21.1598852 L7.10542736e-15,21.1598852 L2.34928845,8.7926034 L5.88548895,8.7926034 L5.59829041,10.2708763 C6.37466847,9.5030419 7.39136445,8.83006408 8.7703994,8.72885452 C10.562159,8.59653727 11.7363651,9.39898445 12.0498518,10.9405681 C13.0374117,9.8568372 14.2398776,8.56564864 16.5111778,8.72885452 C18.1307497,8.84474165 19.0679239,9.97907731 19.180525,11.6269091 Z M26.4641079,11.3594924 C25.0456406,11.4024298 23.9253253,12.7045718 23.7180867,13.8763681 C25.242583,13.7738441 27.6304275,13.930697 27.8744696,12.6563767 C28.0608967,11.685466 27.1874714,11.3373665 26.4641079,11.3594924 Z M36.5594323,10.5561689 C37.3842245,9.48448681 38.5106737,8.69080236 40.5493233,8.83407303 C40.3105388,10.0562551 40.118635,11.1993535 39.8629823,12.3422328 C37.3226663,12.1860371 36.2049798,13.6566426 35.6459175,15.6784239 C35.5915886,15.8738329 35.5357262,16.0677083 35.4796447,16.2596121 L34.5514523,21.1599509 L31.0154709,21.1599509 L31.320633,19.550018 C31.3151563,19.5528659 31.3114321,19.5546184 31.3063936,19.5583426 C29.5924032,20.6994694 27.6435716,21.4401393 25.1291056,21.4267761 C22.6483762,21.413632 20.8520161,20.3217956 20.2103651,18.2237785 C19.4992694,15.8994638 20.2912013,13.3291355 21.3541207,11.7792273 C22.5712642,10.0041168 24.4734342,8.56155206 27.5314086,8.76681906 C29.694489,8.91206134 31.4731045,10.280581 31.2301578,12.8855222 C30.9300342,16.1088931 27.0356571,16.5023398 23.3752448,16.4694796 C23.4249733,17.8877277 24.4734342,18.7068241 25.7773287,18.8021188 C27.8819179,18.9550285 32.0354529,18.2461235 34.733279,13.1359172 C33.9433187,13.7953128 33.5054012,14.5519747 32.1298713,15.2740238 L32.2010685,14.8978836 L33.3492055,8.79266912 L36.885406,8.79266912 L36.5594323,10.5561689 Z M69.6787694,18.0328386 C71.1568233,16.7856827 71.4775392,13.7599114 71.8902639,11.5503885 C70.5033425,11.2662569 69.4778838,11.7482072 68.7630639,12.389201 C67.7476824,13.3003061 66.9572839,14.9420039 66.9713043,16.5841399 C66.976781,17.216371 67.0961732,17.8499165 67.5045166,18.2238661 C68.1385002,18.8022064 69.1946285,18.441401 69.6787694,18.0328386 Z M71.0891311,8.76668762 C72.9612888,8.63765639 74.4818419,8.96428723 75.9325122,9.33867495 L73.6697557,21.1598195 L70.1339934,21.1598195 L70.4225063,19.6355423 C69.5436043,20.706129 68.4316136,21.5585238 66.5894683,21.4266447 C64.4658202,21.2743922 63.2414474,19.5012534 63.2341734,17.193807 C63.2265508,14.701686 64.2049098,12.6658843 65.4457127,11.3216812 C66.7599034,9.89817539 68.654187,8.93471301 71.0891311,8.76668762 Z M87.6487887,11.7791177 C87.710566,12.7802599 87.5274249,13.7728583 87.3066041,14.7549415 L86.0311884,21.1598414 L82.495207,21.1598414 L83.8288948,14.1194244 C84.0109406,12.8120248 83.9614311,11.2993581 82.3098752,11.703101 C81.0086095,12.020531 80.2363937,13.2869648 80.0714353,14.2451696 L78.7627213,21.1598414 L75.2265208,21.1598414 L77.5497401,8.79277865 L81.0855025,8.79277865 L80.7983039,10.4092836 C81.7429264,9.46926156 82.9140656,8.61292358 84.9413236,8.76670953 C86.6115003,8.893331 87.5410071,10.0554883 87.6487887,11.7791177 Z M29.0414902,31.0261081 C30.9506705,31.0261081 31.770205,30.1680175 31.6906832,29.0312721 C31.6681191,28.7094608 31.516962,28.3876495 31.2645953,28.1517129 C30.8974369,27.8084329 30.2877698,27.6798398 29.730241,27.6798398 L28.7862757,27.6798398 L28.1404623,31.0261081 L29.0414902,31.0261081 Z M24.5806024,23.6686992 L29.621364,23.6686992 C32.3886348,23.6686992 34.1205888,24.2047593 35.3138538,25.3202551 C36.1629625,26.1139396 36.6225678,27.1650293 36.7049375,28.3449311 C36.9673813,32.0986665 34.3111782,34.6083129 29.5490715,34.6083129 L27.4256424,34.6083129 L26.6164041,38.6838596 L21.5971112,38.6838596 L24.5806024,23.6686992 Z M44.8666994,33.1068188 L44.204456,29.4602079 L42.1211164,33.1068188 L44.8666994,33.1068188 Z M42.8269545,23.5613557 L47.8035291,23.5613557 L51.1335863,38.6838596 L45.7927011,38.6838596 L45.394435,36.6675549 L40.1389865,36.6675549 L38.9715715,38.6838596 L33.5018742,38.6838596 L42.8269545,23.5613557 Z M54.5519281,32.9566475 L50.9642465,23.6688087 L56.2409446,23.6688087 L57.8145122,28.6881016 L61.367581,23.6688087 L67.3093705,23.6688087 L59.4645347,33.5785824 L58.4482768,38.6839691 L53.4289839,38.6839691 L54.5519281,32.9566475 Z M99.4275436,14.6334243 C100.145869,23.3797262 87.7082658,31.6738711 70.9168997,34.1725641 L75.8809873,40 L63.2836838,33.8297223 L69.7963653,25.2602085 L69.89166,29.5870265 C85.0301558,26.8714558 95.9373474,20.2945873 95.3837618,13.5558274 C94.7390438,5.70661016 78.7899953,0.610862433 59.7608465,2.17413382 C55.8209031,2.49791677 52.058186,3.08173379 48.5734665,3.87366569 C48.497888,3.67935211 48.4093844,3.49139151 48.3094892,3.31087923 C52.8477081,1.77082908 58.0225395,0.688193543 63.5566429,0.23362682 C82.5857917,-1.32964457 98.6456888,5.11731643 99.4275436,14.6334243 Z" id="logo" fill="url(#linearGradient-1)"></path>
    </g>
</svg>